<?xml version="1.0" standalone="no"?><!DOCTYPE svg PUBLIC "-//W3C//DTD SVG 1.1//EN" "http://www.w3.org/Graphics/SVG/1.1/DTD/svg11.dtd"><svg t="1524624729605" class="icon" style="" viewBox="0 0 1024 1024" version="1.1" xmlns="http://www.w3.org/2000/svg" p-id="1911" xmlns:xlink="http://www.w3.org/1999/xlink" width="48" height="48"><defs><style type="text/css"></style></defs><path d="M515.434 67.979c-245.743 0-444.958 199.214-444.958 444.958 0 245.746 199.214 444.963 444.958 444.963 245.746 0 444.963-199.217 444.963-444.963 0-245.743-199.217-444.958-444.963-444.958v0zM797.275 781.553c-29.633-25.881-80.542-59.684-91.207-66.949v0c-21.819-15.25-89.323-42.434-118.018-50.114-13.463-6.377-13.259-32.942-13.005-39.397h-1.469c44.295-33.205 74.821-99.591 74.821-167.721 0-97.765-22.986-192.057-132.996-192.057-110.287 0-132.996 95.593-132.996 192.057 0 67.346 30.656 134.292 75.116 167.721h-1.759c0.251 6.458 0.454 33.022-13.009 39.397-28.695 7.676-98.407 36.494-118.018 50.114-7.973 5.535-61.71 41.467-90.493 67.625-66.991-69.932-108.151-164.803-108.151-269.292 0-215.024 174.314-389.338 389.338-389.338 215.028 0 389.343 174.314 389.343 389.338 0.001 104.151-40.892 198.748-107.5 268.614v0zM797.275 781.553z" p-id="1912" fill="#ffffff"></path></svg>